<?xml version="1.0" encoding="UTF-8"?>
<svg id="Layer_2" data-name="Layer 2" xmlns="http://www.w3.org/2000/svg" xmlns:xlink="http://www.w3.org/1999/xlink" viewBox="0 0 446.26 446.26">
  <defs>
    <style>
      .cls-1 {
        fill: url(#linear-gradient);
      }

      .cls-2 {
        fill: #121212;
      }

      .cls-3 {
        fill: #a7fd00;
      }
    </style>
    <linearGradient id="linear-gradient" x1="51.11" y1="223.13" x2="395.14" y2="223.13" gradientUnits="userSpaceOnUse">
      <stop offset="0" stop-color="#a7fd00"/>
      <stop offset="1" stop-color="#09ff9b"/>
    </linearGradient>
  </defs>
  <g id="Layer_1-2" data-name="Layer 1">
    <rect class="cls-2" width="446.26" height="446.26" rx="50" ry="50"/>
    <g>
      <g>
        <path class="cls-3" d="M215.65,64.38c2.81,140.56,2.81,237.38,0,290.47,0,11.13-3.07,20.64-9.21,28.51-6.14,7.86-13.55,11.79-22.24,11.79h-20.71v-2.94c0-13.1-2.62-25.31-7.86-36.62-5.24-11.31-12.34-20.22-21.29-26.78l-29.92-21.13c-3.58-2.62-7.28-3.2-11.12-1.73-3.84,1.47-6.78,4.51-8.83,9.1-2.05,4.59-2.49,9.33-1.34,14.25,1.15,4.91,3.51,8.67,7.1,11.29l29.91,21.13c9.46,6.56,14.19,16.72,14.19,30.48v2.94H63.78c-3.07,0-5.63-1.31-7.67-3.94-2.05-2.61-3.07-5.73-3.07-9.33-2.56-77.98-2.56-172.35,0-283.09v-29.01c0-5.23,1.47-9.65,4.41-13.26,2.93-3.6,6.33-5.41,10.16-5.41h21.09c8.18,1.31,13.68,7.7,16.49,19.17v-.5c3.58,21.31,12.78,37.2,27.62,47.68l29.91,21.13c3.58,2.62,7.29,3.2,11.12,1.73,3.83-1.47,6.77-4.51,8.82-9.1,2.04-4.58,2.49-9.33,1.34-14.25-1.15-4.91-3.51-8.67-7.1-11.29l-29.91-21.13c-8.7-6.22-13.3-15.73-13.81-28.51,0-3.26,1.02-4.91,3.07-4.91h68.65c3.06,0,5.62,1.31,7.67,3.94,2.05,2.62,3.07,5.73,3.07,9.33Z"/>
        <path class="cls-3" d="M341.83,247.7c-3.58-2.62-7.35-3.1-11.31-1.47-3.97,1.65-6.84,4.75-8.63,9.34-1.79,4.59-2.11,9.33-.96,14.24,1.15,4.93,3.51,8.69,7.1,11.31l54.84,39.32c8.18,5.57,12.27,14.41,12.27,26.53v23.6c0,6.88-1.86,12.7-5.56,17.45-3.71,4.75-8.25,7.12-13.61,7.12h-127.33c-3.84,0-7.17-1.79-9.98-5.41-2.82-3.6-4.22-7.86-4.22-12.78v-47.66c0-2.96.96-5.09,2.88-6.4,1.92-1.3,3.77-1.3,5.56,0l47.94,34.41c2.3,1.31,4.73,1.95,7.28,1.95,6.39,0,10.87-3.6,13.43-10.8,1.27-4.59,1.27-9.18,0-13.77-1.29-4.58-3.58-8.18-6.9-10.8l-52.93-37.85c-5.37-3.94-9.59-9.25-12.65-15.97-3.07-6.72-4.61-14.01-4.61-21.87V86.5c0-9.84,2.68-18.19,8.05-25.07,5.37-6.88,11.89-10.32,19.56-10.32h105.47c7.67,0,14.19,3.44,19.56,10.32,5.37,6.88,8.06,15.23,8.06,25.07v173.49c0,5.9-1.99,10.32-5.95,13.26-3.96,2.96-7.86,2.96-11.7,0l-35.67-25.55Z"/>
      </g>
      <g>
        <path class="cls-1" d="M215.65,64.38c2.81,140.56,2.81,237.38,0,290.47,0,11.13-3.07,20.64-9.21,28.51-6.14,7.86-13.55,11.79-22.24,11.79h-20.71v-2.94c0-13.1-2.62-25.31-7.86-36.62-5.24-11.31-12.34-20.22-21.29-26.78l-29.92-21.13c-3.58-2.62-7.28-3.2-11.12-1.73-3.84,1.47-6.78,4.51-8.83,9.1-2.05,4.59-2.49,9.33-1.34,14.25,1.15,4.91,3.51,8.67,7.1,11.29l29.91,21.13c9.46,6.56,14.19,16.72,14.19,30.48v2.94H63.78c-3.07,0-5.63-1.31-7.67-3.94-2.05-2.61-3.07-5.73-3.07-9.33-2.56-77.98-2.56-172.35,0-283.09v-29.01c0-5.23,1.47-9.65,4.41-13.26,2.93-3.6,6.33-5.41,10.16-5.41h21.09c8.18,1.31,13.68,7.7,16.49,19.17v-.5c3.58,21.31,12.78,37.2,27.62,47.68l29.91,21.13c3.58,2.62,7.29,3.2,11.12,1.73,3.83-1.47,6.77-4.51,8.82-9.1,2.04-4.58,2.49-9.33,1.34-14.25-1.15-4.91-3.51-8.67-7.1-11.29l-29.91-21.13c-8.7-6.22-13.3-15.73-13.81-28.51,0-3.26,1.02-4.91,3.07-4.91h68.65c3.06,0,5.62,1.31,7.67,3.94,2.05,2.62,3.07,5.73,3.07,9.33Z"/>
        <path class="cls-1" d="M341.83,247.7c-3.58-2.62-7.35-3.1-11.31-1.47-3.97,1.65-6.84,4.75-8.63,9.34-1.79,4.59-2.11,9.33-.96,14.24,1.15,4.93,3.51,8.69,7.1,11.31l54.84,39.32c8.18,5.57,12.27,14.41,12.27,26.53v23.6c0,6.88-1.86,12.7-5.56,17.45-3.71,4.75-8.25,7.12-13.61,7.12h-127.33c-3.84,0-7.17-1.79-9.98-5.41-2.82-3.6-4.22-7.86-4.22-12.78v-47.66c0-2.96.96-5.09,2.88-6.4,1.92-1.3,3.77-1.3,5.56,0l47.94,34.41c2.3,1.31,4.73,1.95,7.28,1.95,6.39,0,10.87-3.6,13.43-10.8,1.27-4.59,1.27-9.18,0-13.77-1.29-4.58-3.58-8.18-6.9-10.8l-52.93-37.85c-5.37-3.94-9.59-9.25-12.65-15.97-3.07-6.72-4.61-14.01-4.61-21.87V86.5c0-9.84,2.68-18.19,8.05-25.07,5.37-6.88,11.89-10.32,19.56-10.32h105.47c7.67,0,14.19,3.44,19.56,10.32,5.37,6.88,8.06,15.23,8.06,25.07v173.49c0,5.9-1.99,10.32-5.95,13.26-3.96,2.96-7.86,2.96-11.7,0l-35.67-25.55Z"/>
      </g>
    </g>
  </g>
</svg>