<?xml version="1.0" encoding="UTF-8"?>
<svg id="Layer_2" data-name="Layer 2" xmlns="http://www.w3.org/2000/svg" viewBox="0 0 310.4 310.4">
  <defs>
    <style>
      .cls-1 {
        fill: #231f20;
      }

      .cls-2 {
        fill: #a7fd00;
      }
    </style>
  </defs>
  <g id="Layer_1-2" data-name="Layer 1">
    <g>
      <g>
        <path class="cls-2" d="M148.45,11.97c2.53,126.82,2.53,214.18,0,262.07,0,10.05-2.77,18.62-8.31,25.72-5.54,7.09-12.23,10.64-20.07,10.64h-18.69v-2.66c0-11.82-2.37-22.84-7.09-33.04-4.73-10.21-11.13-18.25-19.21-24.16l-26.99-19.07c-3.23-2.37-6.57-2.89-10.03-1.56-3.46,1.33-6.12,4.07-7.96,8.21-1.85,4.14-2.25,8.42-1.21,12.86,1.04,4.43,3.17,7.82,6.4,10.19l26.99,19.07c8.53,5.92,12.81,15.08,12.81,27.5v2.66H11.42c-2.77,0-5.08-1.18-6.92-3.55-1.85-2.35-2.77-5.17-2.77-8.42C-.58,228.08-.58,142.93,1.73,43.01v-26.17c0-4.72,1.33-8.7,3.98-11.97C8.36,1.63,11.42,0,14.88,0h19.03c7.38,1.18,12.34,6.94,14.88,17.29v-.45c3.23,19.23,11.53,33.56,24.92,43.01l26.99,19.07c3.23,2.37,6.58,2.89,10.04,1.56,3.46-1.33,6.11-4.07,7.96-8.21,1.84-4.13,2.25-8.42,1.21-12.86-1.04-4.43-3.17-7.82-6.4-10.19l-26.99-19.07c-7.85-5.62-12-14.19-12.46-25.72,0-2.94.92-4.43,2.77-4.43h61.94c2.77,0,5.07,1.18,6.92,3.55s2.77,5.17,2.77,8.42Z"/>
        <path class="cls-2" d="M262.3,177.37c-3.23-2.37-6.63-2.8-10.21-1.33-3.58,1.49-6.17,4.29-7.78,8.43-1.62,4.14-1.9,8.42-.87,12.85,1.04,4.45,3.17,7.84,6.4,10.21l49.48,35.48c7.38,5.02,11.07,13.01,11.07,23.93v21.29c0,6.21-1.68,11.46-5.02,15.75-3.35,4.29-7.44,6.42-12.28,6.42h-114.88c-3.46,0-6.47-1.62-9-4.88-2.54-3.25-3.81-7.09-3.81-11.53v-43c0-2.67.87-4.59,2.6-5.77,1.73-1.17,3.4-1.17,5.02,0l43.25,31.05c2.08,1.18,4.26,1.76,6.57,1.76,5.77,0,9.81-3.25,12.11-9.74,1.15-4.14,1.15-8.29,0-12.43-1.16-4.13-3.23-7.38-6.23-9.74l-47.75-34.15c-4.84-3.55-8.65-8.34-11.42-14.41-2.77-6.06-4.16-12.64-4.16-19.73V31.93c0-8.88,2.42-16.41,7.27-22.62,4.85-6.21,10.73-9.31,17.65-9.31h95.16c6.92,0,12.8,3.1,17.65,9.31,4.85,6.21,7.27,13.74,7.27,22.62v156.53c0,5.33-1.79,9.31-5.37,11.97-3.58,2.67-7.09,2.67-10.55,0l-32.18-23.05Z"/>
      </g>
      <g>
        <path class="cls-1" d="M148.45,11.97c2.53,126.82,2.53,214.18,0,262.07,0,10.05-2.77,18.62-8.31,25.72-5.54,7.09-12.23,10.64-20.07,10.64h-18.69v-2.66c0-11.82-2.37-22.84-7.09-33.04-4.73-10.21-11.13-18.25-19.21-24.16l-26.99-19.07c-3.23-2.37-6.57-2.89-10.03-1.56-3.46,1.33-6.12,4.07-7.96,8.21-1.85,4.14-2.25,8.42-1.21,12.86,1.04,4.43,3.17,7.82,6.4,10.19l26.99,19.07c8.53,5.92,12.81,15.08,12.81,27.5v2.66H11.42c-2.77,0-5.08-1.18-6.92-3.55-1.85-2.35-2.77-5.17-2.77-8.42C-.58,228.08-.58,142.93,1.73,43.01v-26.17c0-4.72,1.33-8.7,3.98-11.97C8.36,1.63,11.42,0,14.88,0h19.03c7.38,1.18,12.34,6.94,14.88,17.29v-.45c3.23,19.23,11.53,33.56,24.92,43.01l26.99,19.07c3.23,2.37,6.58,2.89,10.04,1.56,3.46-1.33,6.11-4.07,7.96-8.21,1.84-4.13,2.25-8.42,1.21-12.86-1.04-4.43-3.17-7.82-6.4-10.19l-26.99-19.07c-7.85-5.62-12-14.19-12.46-25.72,0-2.94.92-4.43,2.77-4.43h61.94c2.77,0,5.07,1.18,6.92,3.55s2.77,5.17,2.77,8.42Z"/>
        <path class="cls-1" d="M262.3,177.37c-3.23-2.37-6.63-2.8-10.21-1.33-3.58,1.49-6.17,4.29-7.78,8.43-1.62,4.14-1.9,8.42-.87,12.85,1.04,4.45,3.17,7.84,6.4,10.21l49.48,35.48c7.38,5.02,11.07,13.01,11.07,23.93v21.29c0,6.21-1.68,11.46-5.02,15.75-3.35,4.29-7.44,6.42-12.28,6.42h-114.88c-3.46,0-6.47-1.62-9-4.88-2.54-3.25-3.81-7.09-3.81-11.53v-43c0-2.67.87-4.59,2.6-5.77,1.73-1.17,3.4-1.17,5.02,0l43.25,31.05c2.08,1.18,4.26,1.76,6.57,1.76,5.77,0,9.81-3.25,12.11-9.74,1.15-4.14,1.15-8.29,0-12.43-1.16-4.13-3.23-7.38-6.23-9.74l-47.75-34.15c-4.84-3.55-8.65-8.34-11.42-14.41-2.77-6.06-4.16-12.64-4.16-19.73V31.93c0-8.88,2.42-16.41,7.27-22.62,4.85-6.21,10.73-9.31,17.65-9.31h95.16c6.92,0,12.8,3.1,17.65,9.31,4.85,6.21,7.27,13.74,7.27,22.62v156.53c0,5.33-1.79,9.31-5.37,11.97-3.58,2.67-7.09,2.67-10.55,0l-32.18-23.05Z"/>
      </g>
    </g>
  </g>
</svg>