<?xml version="1.0" encoding="UTF-8"?>
<svg id="Layer_2" data-name="Layer 2" xmlns="http://www.w3.org/2000/svg" xmlns:xlink="http://www.w3.org/1999/xlink" viewBox="0 0 446.26 446.26">
  <defs>
    <style>
      .cls-1 {
        fill: url(#linear-gradient);
      }

      .cls-2 {
        fill: #121212;
      }

      .cls-3 {
        fill: #a7fd00;
      }
    </style>
    <linearGradient id="linear-gradient" x1="86.5" y1="223.13" x2="359.75" y2="223.13" gradientUnits="userSpaceOnUse">
      <stop offset="0" stop-color="#a7fd00"/>
      <stop offset="1" stop-color="#09ff9b"/>
    </linearGradient>
  </defs>
  <g id="Layer_1-2" data-name="Layer 1">
    <rect class="cls-2" width="446.26" height="446.26" rx="50" ry="50"/>
    <g>
      <g>
        <path class="cls-3" d="M217.19,97.04c2.23,111.64,2.23,188.55,0,230.71,0,8.84-2.44,16.39-7.31,22.64-4.87,6.24-10.76,9.37-17.67,9.37h-16.45v-2.34c0-10.41-2.08-20.1-6.24-29.09-4.16-8.98-9.8-16.06-16.91-21.27l-23.76-16.79c-2.85-2.08-5.79-2.54-8.83-1.37-3.05,1.17-5.38,3.58-7.01,7.23-1.63,3.65-1.98,7.41-1.07,11.32.92,3.9,2.79,6.89,5.64,8.97l23.76,16.79c7.51,5.21,11.27,13.28,11.27,24.21v2.34h-56.05c-2.44,0-4.47-1.04-6.09-3.13-1.63-2.07-2.44-4.55-2.44-7.41-2.03-61.93-2.03-136.89,0-224.85v-23.04c0-4.16,1.17-7.66,3.51-10.53,2.33-2.86,5.03-4.29,8.07-4.29h16.75c6.5,1.04,10.86,6.11,13.1,15.22v-.39c2.84,16.93,10.15,29.54,21.93,37.87l23.76,16.79c2.84,2.08,5.79,2.54,8.84,1.37,3.04-1.17,5.38-3.58,7.01-7.23,1.62-3.63,1.98-7.41,1.07-11.32-.91-3.9-2.79-6.89-5.64-8.97l-23.76-16.79c-6.91-4.94-10.56-12.49-10.97-22.64,0-2.59.81-3.9,2.44-3.9h54.53c2.43,0,4.46,1.04,6.09,3.13s2.44,4.55,2.44,7.41Z"/>
        <path class="cls-3" d="M317.41,242.65c-2.85-2.08-5.84-2.47-8.98-1.17-3.15,1.31-5.43,3.77-6.85,7.42-1.42,3.65-1.68,7.41-.76,11.31.91,3.91,2.79,6.9,5.64,8.98l43.56,31.23c6.5,4.42,9.75,11.45,9.75,21.07v18.74c0,5.46-1.48,10.09-4.42,13.86-2.95,3.77-6.55,5.65-10.81,5.65h-101.13c-3.05,0-5.69-1.42-7.92-4.29-2.24-2.86-3.35-6.24-3.35-10.15v-37.85c0-2.35.76-4.04,2.29-5.08,1.52-1.03,2.99-1.03,4.42,0l38.08,27.33c1.83,1.04,3.75,1.55,5.79,1.55,5.08,0,8.63-2.86,10.66-8.58,1.01-3.65,1.01-7.29,0-10.94-1.02-3.63-2.85-6.49-5.48-8.58l-42.04-30.06c-4.26-3.13-7.62-7.34-10.05-12.68-2.44-5.34-3.66-11.13-3.66-17.37V114.61c0-7.81,2.13-14.45,6.4-19.91,4.27-5.46,9.45-8.2,15.54-8.2h83.77c6.09,0,11.27,2.73,15.53,8.2,4.27,5.46,6.4,12.1,6.4,19.91v137.8c0,4.69-1.58,8.2-4.73,10.53-3.15,2.35-6.24,2.35-9.29,0l-28.33-20.29Z"/>
      </g>
      <g>
        <path class="cls-1" d="M217.19,97.04c2.23,111.64,2.23,188.55,0,230.71,0,8.84-2.44,16.39-7.31,22.64-4.87,6.24-10.76,9.37-17.67,9.37h-16.45v-2.34c0-10.41-2.08-20.1-6.24-29.09-4.16-8.98-9.8-16.06-16.91-21.27l-23.76-16.79c-2.85-2.08-5.79-2.54-8.83-1.37-3.05,1.17-5.38,3.58-7.01,7.23-1.63,3.65-1.98,7.41-1.07,11.32.92,3.9,2.79,6.89,5.64,8.97l23.76,16.79c7.51,5.21,11.27,13.28,11.27,24.21v2.34h-56.05c-2.44,0-4.47-1.04-6.09-3.13-1.63-2.07-2.44-4.55-2.44-7.41-2.03-61.93-2.03-136.89,0-224.85v-23.04c0-4.16,1.17-7.66,3.51-10.53,2.33-2.86,5.03-4.29,8.07-4.29h16.75c6.5,1.04,10.86,6.11,13.1,15.22v-.39c2.84,16.93,10.15,29.54,21.93,37.87l23.76,16.79c2.84,2.08,5.79,2.54,8.84,1.37,3.04-1.17,5.38-3.58,7.01-7.23,1.62-3.63,1.98-7.41,1.07-11.32-.91-3.9-2.79-6.89-5.64-8.97l-23.76-16.79c-6.91-4.94-10.56-12.49-10.97-22.64,0-2.59.81-3.9,2.44-3.9h54.53c2.43,0,4.46,1.04,6.09,3.13s2.44,4.55,2.44,7.41Z"/>
        <path class="cls-1" d="M317.41,242.65c-2.85-2.08-5.84-2.47-8.98-1.17-3.15,1.31-5.43,3.77-6.85,7.42-1.42,3.65-1.68,7.41-.76,11.31.91,3.91,2.79,6.9,5.64,8.98l43.56,31.23c6.5,4.42,9.75,11.45,9.75,21.07v18.74c0,5.46-1.48,10.09-4.42,13.86-2.95,3.77-6.55,5.65-10.81,5.65h-101.13c-3.05,0-5.69-1.42-7.92-4.29-2.24-2.86-3.35-6.24-3.35-10.15v-37.85c0-2.35.76-4.04,2.29-5.08,1.52-1.03,2.99-1.03,4.42,0l38.08,27.33c1.83,1.04,3.75,1.55,5.79,1.55,5.08,0,8.63-2.86,10.66-8.58,1.01-3.65,1.01-7.29,0-10.94-1.02-3.63-2.85-6.49-5.48-8.58l-42.04-30.06c-4.26-3.13-7.62-7.34-10.05-12.68-2.44-5.34-3.66-11.13-3.66-17.37V114.61c0-7.81,2.13-14.45,6.4-19.91,4.27-5.46,9.45-8.2,15.54-8.2h83.77c6.09,0,11.27,2.73,15.53,8.2,4.27,5.46,6.4,12.1,6.4,19.91v137.8c0,4.69-1.58,8.2-4.73,10.53-3.15,2.35-6.24,2.35-9.29,0l-28.33-20.29Z"/>
      </g>
    </g>
  </g>
</svg>